<?xml version="1.0" encoding="UTF-8"?>
<svg width="450px" height="512px" viewBox="0 0 450 512" version="1.1" xmlns="http://www.w3.org/2000/svg" xmlns:xlink="http://www.w3.org/1999/xlink">
    <title>hotel</title>
    <g id="Page-1" stroke="none" stroke-width="1" fill="none" fill-rule="evenodd">
        <g id="hotel" fill="#BD8C1B" fill-rule="nonzero">
            <path d="M442.381,155.310815 L356.691,155.310815 L356.69,62.7068152 C368.133,65.6008152 376.566,61.2518152 374.495,49.3148152 L373.068,41.5718152 L378.637,36.0088152 C378.637,36.0088152 378.638,36.0088152 378.638,36.0078152 C382.015,32.6338152 383.16,27.7288152 381.629,23.2068152 C380.098,18.6848152 376.207,15.4858152 371.475,14.8578152 L363.671,13.8218152 L360.101,6.80681521 C355.436,-2.35918479 342.24,-2.25918479 337.773,7.08081521 L334.376,14.1838152 L326.6,15.4118152 C323.152,15.9568152 320.194,17.8688152 318.294,20.6368152 C316.361,17.4988152 313.126,15.3588152 309.352,14.8578152 L301.548,13.8218152 L297.978,6.80681521 C293.067,-2.62418479 280.692,-1.87418479 275.649,7.08181521 L272.253,14.1838152 L264.477,15.4118152 C261.029,15.9568152 258.069,17.8688152 256.17,20.6368152 C254.236,17.4988152 251.002,15.3588152 247.228,14.8578152 L239.424,13.8218152 L235.854,6.80681521 C233.689,2.55281521 229.379,-0.0801847949 224.604,0.00186340117 C219.83,0.0628152051 215.585,2.77481521 213.524,7.08181521 L210.128,14.1838152 L202.352,15.4118152 C198.904,15.9568152 195.945,17.8688152 194.046,20.6368152 C192.112,17.4988152 188.878,15.3588152 185.104,14.8578152 L177.3,13.8218152 L173.729,6.80681521 C171.563,2.55281521 167.235,-0.0801847949 162.48,0.00186340117 C157.706,0.0628152051 153.461,2.77481521 151.4,7.08181521 L148.004,14.1838152 L140.228,15.4118152 C136.78,15.9568152 133.821,17.8688152 131.922,20.6368152 C129.988,17.4988152 126.754,15.3588152 122.98,14.8578152 L115.176,13.8218152 L111.605,6.80681521 C106.131,-2.31118479 94.818,-2.18618479 89.276,7.08181521 L85.88,14.1838152 L78.104,15.4118152 C66.569,18.1268152 63.944,29.0018152 71.467,36.7318152 L77.171,42.1578152 L75.936,49.9318152 C74.3,60.2378152 85.439,66.9088152 93.48,63.1498152 L93.193,155.310815 L70.443,155.310815 C66.301,155.310815 62.943,158.667815 62.943,162.810815 C62.943,166.953815 66.301,170.310815 70.443,170.310815 L93.193,170.310815 L93.193,428.161815 C93.193,432.304815 96.551,435.661815 100.693,435.661815 C104.835,435.661815 108.193,432.304815 108.193,428.161815 L108.193,92.6618152 L341.693,92.6618152 L341.693,193.181815 C341.693,197.324815 345.05,200.681815 349.193,200.681815 C353.336,200.681815 356.693,197.324815 356.693,193.181815 L356.693,170.311815 L434.883,170.311815 L434.883,497.001815 L356.693,497.001815 L356.693,225.871815 C356.693,221.728815 353.336,218.371815 349.193,218.371815 C345.05,218.371815 341.693,221.728815 341.693,225.871815 L341.693,497.001815 L279.037,497.001815 L279.037,418.777815 L287.067,418.777815 C291.21,418.777815 294.567,415.420815 294.567,411.277815 L294.567,380.250815 C294.567,376.107815 291.21,372.750815 287.067,372.750815 L162.816,372.750815 C158.674,372.750815 155.316,376.107815 155.316,380.250815 L155.316,411.277815 C155.316,415.420815 158.674,418.777815 162.816,418.777815 L170.847,418.777815 L170.847,497.001815 L108.19,497.001815 L108.19,460.841815 C108.19,456.698815 104.832,453.341815 100.69,453.341815 C96.548,453.341815 93.19,456.698815 93.19,460.841815 L93.19,497.001815 L15,497.001815 L15,170.311815 L37.75,170.311815 C41.892,170.311815 45.25,166.954815 45.25,162.811815 C45.25,158.668815 41.892,155.311815 37.75,155.311815 L7.5,155.311815 C3.358,155.311815 0,158.668815 0,162.811815 L0,504.501815 C0,508.644815 3.358,512.001815 7.5,512.001815 L442.38,512.001815 C446.523,512.001815 449.88,508.644815 449.88,504.501815 L449.88,162.811815 C449.88,158.667815 446.523,155.310815 442.381,155.310815 L442.381,155.310815 Z M104.385,43.9308152 C102.203,42.8218152 99.522,42.8538152 97.374,44.0338152 L91.558,47.1838152 L92.601,40.6168152 C92.988,38.1788152 92.151,35.7068152 90.362,34.0058152 L85.544,29.4228152 L92.112,28.3858152 C94.55,28.0008152 96.643,26.4408152 97.708,24.2128152 L100.577,18.2138152 L103.593,24.1408152 C104.713,26.3398152 106.843,27.8488152 109.29,28.1728152 L115.882,29.0478152 L111.178,33.7478152 C109.431,35.4928152 108.656,37.9848152 109.103,40.4118152 L110.308,46.9528152 L104.385,43.9308152 Z M155.316,77.6608152 L108.477,77.6608152 L108.477,62.8398152 C119.758,65.5058152 125.597,60.9968152 125.996,49.3148152 L124.57,41.5718152 C126.963,39.3788152 129.706,36.9748152 131.585,34.2688152 C133.362,37.1168152 136.798,40.0008152 139.293,42.1578152 L138.058,49.9318152 C136.45,60.0608152 147.298,66.7908152 155.316,63.2828152 L155.316,77.6608152 Z M158.061,44.8118152 L153.682,47.1828152 L154.725,40.6158152 C155.112,38.1778152 154.275,35.7058152 152.486,34.0048152 L147.668,29.4218152 L154.236,28.3848152 C156.674,27.9998152 158.767,26.4398152 159.832,24.2118152 L162.701,18.2128152 L165.717,24.1398152 C166.837,26.3388152 168.967,27.8478152 171.414,28.1718152 L178.006,29.0468152 L173.302,33.7468152 C171.555,35.4918152 170.78,37.9838152 171.227,40.4108152 L172.432,46.9518152 L166.508,43.9308152 C165.385,43.3568152 161.753,42.7508152 158.061,44.8118152 L158.061,44.8118152 Z M217.44,77.6608152 L170.315,77.6608152 L170.315,62.7058152 C181.758,65.5988152 187.693,61.1348152 188.12,49.3138152 L186.694,41.5708152 C189.087,39.3778152 191.83,36.9738152 193.709,34.2678152 C195.486,37.1158152 198.922,39.9998152 201.417,42.1568152 L200.182,49.9308152 C198.574,60.0598152 209.422,66.7898152 217.44,63.2818152 L217.44,77.6608152 Z M220.185,44.8118152 L215.806,47.1828152 L216.849,40.6158152 C217.236,38.1778152 216.399,35.7058152 214.61,34.0048152 L209.792,29.4218152 L216.36,28.3848152 C218.798,27.9998152 220.891,26.4398152 221.956,24.2118152 L224.825,18.2128152 L227.842,24.1398152 C228.961,26.3388152 231.092,27.8478152 233.538,28.1718152 L240.131,29.0468152 L235.427,33.7468152 C233.681,35.4908152 232.905,37.9828152 233.352,40.4108152 L234.557,46.9508152 L228.633,43.9298152 C227.51,43.3568152 223.628,42.6258152 220.185,44.8118152 L220.185,44.8118152 Z M279.564,77.6608152 L232.44,77.6608152 L232.44,62.7058152 C243.883,65.5998152 249.818,61.1358152 250.245,49.3138152 L248.818,41.5708152 C251.211,39.3788152 253.955,36.9738152 255.834,34.2678152 C257.61,37.1158152 261.047,40.0008152 263.542,42.1568152 L262.307,49.9308152 C260.698,60.0598152 271.547,66.7908152 279.565,63.2818152 L279.565,77.6608152 L279.564,77.6608152 Z M282.306,44.8148152 L277.932,47.1838152 L278.975,40.6168152 C279.362,38.1788152 278.525,35.7068152 276.737,34.0058152 L271.918,29.4228152 L278.486,28.3858152 C280.924,28.0008152 283.017,26.4408152 284.082,24.2128152 L286.952,18.2138152 L289.969,24.1408152 C291.088,26.3398152 293.219,27.8488152 295.665,28.1728152 L302.257,29.0478152 L297.553,33.7478152 C295.807,35.4928152 295.031,37.9848152 295.478,40.4128152 L296.683,46.9528152 L290.76,43.9318152 C289.635,43.3568152 285.94,42.8138152 282.306,44.8148152 L282.306,44.8148152 Z M341.689,77.6608152 L294.564,77.6608152 L294.564,62.7058152 C306.008,65.5998152 311.943,61.1358152 312.37,49.3128152 L310.943,41.5708152 C313.243,39.4128152 316.132,36.8978152 317.958,34.2678152 C319.735,37.1158152 323.17,39.9998152 325.666,42.1568152 L324.432,49.9288152 C322.82,60.0638152 333.672,66.7858152 341.69,63.2818152 L341.69,77.6608152 L341.689,77.6608152 Z M352.882,43.9298152 C350.258,42.5918152 346.757,42.9068152 344.436,44.8108152 L340.056,47.1828152 L341.099,40.6148152 C341.486,38.1768152 340.649,35.7058152 338.861,34.0048152 L334.041,29.4218152 L340.609,28.3848152 C343.047,27.9998152 345.139,26.4398152 346.205,24.2128152 L349.075,18.2128152 L352.092,24.1398152 C353.211,26.3388152 355.342,27.8478152 357.788,28.1718152 L364.381,29.0468152 L359.677,33.7468152 C357.931,35.4908152 357.155,37.9828152 357.602,40.4108152 L358.807,46.9508152 L352.882,43.9298152 Z M185.847,496.998815 L185.847,418.811815 L217.44,418.811815 L217.44,496.998815 L185.847,496.998815 Z M232.44,496.998815 L232.44,418.811815 L264.034,418.811815 L264.034,496.998815 L232.44,496.998815 Z M170.316,403.776815 L170.316,387.749815 L279.565,387.749815 L279.565,403.776815 L170.316,403.776815 Z" id="Shape"></path>
            <path d="M147.285,170.314815 L178.348,170.314815 C182.49,170.314815 185.848,166.957815 185.848,162.814815 L185.848,131.751815 C185.848,127.608815 182.49,124.251815 178.348,124.251815 L147.285,124.251815 C143.143,124.251815 139.785,127.608815 139.785,131.751815 L139.785,162.814815 C139.785,166.956815 143.142,170.314815 147.285,170.314815 Z M154.785,139.251815 L170.848,139.251815 L170.848,155.314815 L154.785,155.314815 L154.785,139.251815 Z" id="Shape"></path>
            <path d="M209.409,170.314815 L240.472,170.314815 C244.615,170.314815 247.972,166.957815 247.972,162.814815 L247.972,131.751815 C247.972,127.608815 244.615,124.251815 240.472,124.251815 L209.409,124.251815 C205.267,124.251815 201.909,127.608815 201.909,131.751815 L201.909,162.814815 C201.909,166.956815 205.267,170.314815 209.409,170.314815 L209.409,170.314815 Z M216.909,139.251815 L232.972,139.251815 L232.972,155.314815 L216.909,155.314815 L216.909,139.251815 Z" id="Shape"></path>
            <path d="M271.534,170.314815 L302.596,170.314815 C306.739,170.314815 310.096,166.957815 310.096,162.814815 L310.096,131.751815 C310.096,127.608815 306.739,124.251815 302.596,124.251815 L271.534,124.251815 C267.391,124.251815 264.034,127.608815 264.034,131.751815 L264.034,162.814815 C264.034,166.956815 267.391,170.314815 271.534,170.314815 Z M279.034,139.251815 L295.096,139.251815 L295.096,155.314815 L279.034,155.314815 L279.034,139.251815 Z" id="Shape"></path>
            <path d="M139.785,225.008815 C139.785,229.151815 143.143,232.508815 147.285,232.508815 L178.348,232.508815 C182.49,232.508815 185.848,229.151815 185.848,225.008815 L185.848,193.945815 C185.848,189.802815 182.49,186.445815 178.348,186.445815 L147.285,186.445815 C143.143,186.445815 139.785,189.802815 139.785,193.945815 L139.785,225.008815 Z M154.785,201.445815 L170.848,201.445815 L170.848,217.508815 L154.785,217.508815 L154.785,201.445815 Z" id="Shape"></path>
            <path d="M201.909,225.008815 C201.909,229.151815 205.267,232.508815 209.409,232.508815 L240.472,232.508815 C244.615,232.508815 247.972,229.151815 247.972,225.008815 L247.972,193.945815 C247.972,189.802815 244.615,186.445815 240.472,186.445815 L209.409,186.445815 C205.267,186.445815 201.909,189.802815 201.909,193.945815 L201.909,225.008815 Z M216.909,201.445815 L232.972,201.445815 L232.972,217.508815 L216.909,217.508815 L216.909,201.445815 Z" id="Shape"></path>
            <path d="M264.034,225.008815 C264.034,229.151815 267.391,232.508815 271.534,232.508815 L302.596,232.508815 C306.739,232.508815 310.096,229.151815 310.096,225.008815 L310.096,193.945815 C310.096,189.802815 306.739,186.445815 302.596,186.445815 L271.534,186.445815 C267.391,186.445815 264.034,189.802815 264.034,193.945815 L264.034,225.008815 Z M279.034,201.445815 L295.096,201.445815 L295.096,217.508815 L279.034,217.508815 L279.034,201.445815 Z" id="Shape"></path>
            <path d="M139.785,287.203815 C139.785,291.346815 143.143,294.703815 147.285,294.703815 L178.348,294.703815 C182.49,294.703815 185.848,291.346815 185.848,287.203815 L185.848,256.141815 C185.848,251.998815 182.49,248.641815 178.348,248.641815 L147.285,248.641815 C143.143,248.641815 139.785,251.998815 139.785,256.141815 L139.785,287.203815 Z M154.785,263.641815 L170.848,263.641815 L170.848,279.704815 L154.785,279.704815 L154.785,263.641815 Z" id="Shape"></path>
            <path d="M201.909,287.203815 C201.909,291.346815 205.267,294.703815 209.409,294.703815 L240.472,294.703815 C244.615,294.703815 247.972,291.346815 247.972,287.203815 L247.972,256.141815 C247.972,251.998815 244.615,248.641815 240.472,248.641815 L209.409,248.641815 C205.267,248.641815 201.909,251.998815 201.909,256.141815 L201.909,287.203815 Z M216.909,263.641815 L232.972,263.641815 L232.972,279.704815 L216.909,279.704815 L216.909,263.641815 Z" id="Shape"></path>
            <path d="M264.034,287.203815 C264.034,291.346815 267.391,294.703815 271.534,294.703815 L302.596,294.703815 C306.739,294.703815 310.096,291.346815 310.096,287.203815 L310.096,256.141815 C310.096,251.998815 306.739,248.641815 302.596,248.641815 L271.534,248.641815 C267.391,248.641815 264.034,251.998815 264.034,256.141815 L264.034,287.203815 Z M279.034,263.641815 L295.096,263.641815 L295.096,279.704815 L279.034,279.704815 L279.034,263.641815 Z" id="Shape"></path>
            <path d="M139.785,349.397815 C139.785,353.540815 143.143,356.897815 147.285,356.897815 L178.348,356.897815 C182.49,356.897815 185.848,353.540815 185.848,349.397815 L185.848,318.334815 C185.848,314.191815 182.49,310.834815 178.348,310.834815 L147.285,310.834815 C143.143,310.834815 139.785,314.191815 139.785,318.334815 L139.785,349.397815 Z M154.785,325.835815 L170.848,325.835815 L170.848,341.898815 L154.785,341.898815 L154.785,325.835815 Z" id="Shape"></path>
            <path d="M201.909,349.397815 C201.909,353.540815 205.267,356.897815 209.409,356.897815 L240.472,356.897815 C244.615,356.897815 247.972,353.540815 247.972,349.397815 L247.972,318.334815 C247.972,314.191815 244.615,310.834815 240.472,310.834815 L209.409,310.834815 C205.267,310.834815 201.909,314.191815 201.909,318.334815 L201.909,349.397815 Z M216.909,325.835815 L232.972,325.835815 L232.972,341.898815 L216.909,341.898815 L216.909,325.835815 Z" id="Shape"></path>
            <path d="M264.034,349.397815 C264.034,353.540815 267.391,356.897815 271.534,356.897815 L302.596,356.897815 C306.739,356.897815 310.096,353.540815 310.096,349.397815 L310.096,318.334815 C310.096,314.191815 306.739,310.834815 302.596,310.834815 L271.534,310.834815 C267.391,310.834815 264.034,314.191815 264.034,318.334815 L264.034,349.397815 Z M279.034,325.835815 L295.096,325.835815 L295.096,341.898815 L279.034,341.898815 L279.034,325.835815 Z" id="Shape"></path>
            <path d="M77.059,193.945815 C77.059,189.802815 73.701,186.445815 69.559,186.445815 L38.567,186.445815 C34.425,186.445815 31.067,189.802815 31.067,193.945815 L31.067,224.937815 C31.067,229.080815 34.425,232.437815 38.567,232.437815 L69.559,232.437815 C73.701,232.437815 77.059,229.080815 77.059,224.937815 L77.059,193.945815 Z M62.059,217.438815 L46.067,217.438815 L46.067,201.446815 L62.059,201.446815 L62.059,217.438815 Z" id="Shape"></path>
            <path d="M77.059,256.035815 C77.059,251.892815 73.701,248.535815 69.559,248.535815 L38.567,248.535815 C34.425,248.535815 31.067,251.892815 31.067,256.035815 L31.067,287.027815 C31.067,291.170815 34.425,294.527815 38.567,294.527815 L69.559,294.527815 C73.701,294.527815 77.059,291.170815 77.059,287.027815 L77.059,256.035815 Z M62.059,279.527815 L46.067,279.527815 L46.067,263.535815 L62.059,263.535815 L62.059,279.527815 Z" id="Shape"></path>
            <path d="M77.059,318.370815 C77.059,314.227815 73.701,310.870815 69.559,310.870815 L38.567,310.870815 C34.425,310.870815 31.067,314.227815 31.067,318.370815 L31.067,349.362815 C31.067,353.505815 34.425,356.862815 38.567,356.862815 L69.559,356.862815 C73.701,356.862815 77.059,353.505815 77.059,349.362815 L77.059,318.370815 Z M62.059,341.862815 L46.067,341.862815 L46.067,325.870815 L62.059,325.870815 L62.059,341.862815 Z" id="Shape"></path>
            <path d="M69.559,372.784815 L38.567,372.784815 C34.425,372.784815 31.067,376.141815 31.067,380.284815 L31.067,411.276815 C31.067,415.419815 34.425,418.776815 38.567,418.776815 L69.559,418.776815 C73.701,418.776815 77.059,415.419815 77.059,411.276815 L77.059,380.284815 C77.059,376.142815 73.701,372.784815 69.559,372.784815 Z M62.059,403.776815 L46.067,403.776815 L46.067,387.784815 L62.059,387.784815 L62.059,403.776815 Z" id="Shape"></path>
            <path d="M380.287,232.438815 L411.278,232.438815 C415.421,232.438815 418.778,229.081815 418.778,224.938815 L418.778,193.946815 C418.778,189.803815 415.421,186.446815 411.278,186.446815 L380.287,186.446815 C376.144,186.446815 372.787,189.803815 372.787,193.946815 L372.787,224.938815 C372.787,229.080815 376.144,232.438815 380.287,232.438815 Z M387.787,201.445815 L403.778,201.445815 L403.778,217.437815 L387.787,217.437815 L387.787,201.445815 Z" id="Shape"></path>
            <path d="M372.787,287.027815 C372.787,291.170815 376.144,294.527815 380.287,294.527815 L411.278,294.527815 C415.421,294.527815 418.778,291.170815 418.778,287.027815 L418.778,256.035815 C418.778,251.892815 415.421,248.535815 411.278,248.535815 L380.287,248.535815 C376.144,248.535815 372.787,251.892815 372.787,256.035815 L372.787,287.027815 Z M387.787,263.535815 L403.778,263.535815 L403.778,279.527815 L387.787,279.527815 L387.787,263.535815 Z" id="Shape"></path>
            <path d="M372.787,349.362815 C372.787,353.505815 376.144,356.862815 380.287,356.862815 L411.278,356.862815 C415.421,356.862815 418.778,353.505815 418.778,349.362815 L418.778,318.370815 C418.778,314.227815 415.421,310.870815 411.278,310.870815 L380.287,310.870815 C376.144,310.870815 372.787,314.227815 372.787,318.370815 L372.787,349.362815 Z M387.787,325.870815 L403.778,325.870815 L403.778,341.862815 L387.787,341.862815 L387.787,325.870815 Z" id="Shape"></path>
            <path d="M372.787,411.276815 C372.787,415.419815 376.144,418.776815 380.287,418.776815 L411.278,418.776815 C415.421,418.776815 418.778,415.419815 418.778,411.276815 L418.778,380.284815 C418.778,376.141815 415.421,372.784815 411.278,372.784815 L380.287,372.784815 C376.144,372.784815 372.787,376.141815 372.787,380.284815 L372.787,411.276815 Z M387.787,387.784815 L403.778,387.784815 L403.778,403.776815 L387.787,403.776815 L387.787,387.784815 Z" id="Shape"></path>
        </g>
    </g>
</svg>