<?xml version="1.0" encoding="UTF-8"?>
<svg width="62px" height="60px" viewBox="0 0 62 60" version="1.1" xmlns="http://www.w3.org/2000/svg" xmlns:xlink="http://www.w3.org/1999/xlink">
    <title>59988690-0-noun-home-insurance-</title>
    <g id="Page-1" stroke="none" stroke-width="1" fill="none" fill-rule="evenodd">
        <g id="59988690-0-noun-home-insurance-" fill="#C68A00" fill-rule="nonzero">
            <path d="M58.985146,24.9754253 C57.2917925,24.9754253 55.8806646,26.3364839 55.8806646,27.9697543 L55.8806646,37.0434783 L54.5636119,38.4952741 C54.3754615,37.9508507 53.9991608,37.4971645 53.62286,37.1342155 C52.3058073,35.9546314 50.2361531,36.1361059 49.1072507,37.4064272 L43.7449647,43.9395085 C43.2745888,44.5746692 43.0864384,45.3005671 43.0864384,46.026465 L43.0864384,51.7429112 L42.1456865,51.7429112 C41.5812353,51.7429112 41.0167841,52.1965974 41.0167841,52.831758 L41.0167841,58.9111531 C41.0167841,59.4555766 41.4871601,60 42.1456865,60 L56.4451158,60 C57.0095669,60 57.5740181,59.5463138 57.5740181,58.9111531 L57.5740181,52.831758 C57.5740181,52.2873346 57.1036421,51.7429112 56.4451158,51.7429112 L55.1280631,51.7429112 L55.1280631,50.2911153 C55.1280631,49.8374291 55.2221383,49.3837429 55.5043639,49.020794 L61.6192514,40.9451796 C61.901477,40.5822306 61.9955522,40.0378072 61.9955522,39.584121 L61.9955522,28.0604915 C62.0896274,26.3364839 60.6784995,24.9754253 58.985146,24.9754253 Z M55.6925142,58.094518 L42.9923632,58.094518 L42.9923632,53.557656 L55.6925142,53.557656 L55.6925142,58.094518 Z M60.2081235,39.584121 C60.2081235,39.6748582 60.2081235,39.8563327 60.1140483,39.9470699 L53.9991608,48.0226843 C53.5287848,48.7485822 53.3406344,49.4744802 53.3406344,50.2911153 L53.3406344,51.7429112 L45.0620174,51.7429112 L45.0620174,46.1172023 C45.0620174,45.7542533 45.1560926,45.3913043 45.344243,45.1190926 L50.6124538,38.6767486 C50.9887546,38.1323251 51.8354313,38.1323251 52.3058073,38.5860113 C53.0584088,39.3119093 53.0584088,40.2192817 52.4939577,40.8544423 L51.5532058,41.9432892 C51.2709802,42.3062382 51.2709802,42.8506616 51.6472809,43.2136106 C52.0235817,43.5765595 52.5880329,43.4858223 52.9643336,43.1228733 L57.3858677,38.2230624 C57.5740181,38.0415879 57.6680933,37.7693762 57.6680933,37.5879017 L57.6680933,28.0604915 C57.6680933,27.4253308 58.2325445,26.8809074 58.8910708,26.8809074 C59.5495972,26.8809074 60.1140483,27.4253308 60.1140483,28.0604915 L60.1140483,39.584121 L60.2081235,39.584121 Z" id="Shape"></path>
            <path d="M19.8498657,51.7429112 L18.9091138,51.7429112 L18.9091138,46.1172023 C18.9091138,45.3913043 18.6268882,44.6654064 18.1565122,43.9395085 L12.8883014,37.4971645 C11.7593991,36.1361059 9.68974488,35.9546314 8.37269218,37.2249527 C7.9963914,37.5879017 7.62009063,37.9508507 7.43194025,38.5860113 L6.20896274,37.2249527 L6.20896274,28.1512287 C6.20896274,26.5179584 4.79783484,25.1568998 3.10448137,25.1568998 C1.41112789,25.1568998 0,26.5179584 0,28.1512287 L0,39.6748582 C0,40.1285444 0.188150386,40.5822306 0.470375965,41.0359168 L6.49118832,49.020794 C6.77341389,49.3837429 6.86748909,49.8374291 6.86748909,50.3818526 L6.86748909,51.7429112 L5.55043639,51.7429112 C4.98598523,51.7429112 4.42153407,52.1965974 4.42153407,52.831758 L4.42153407,58.9111531 C4.42153407,59.4555766 4.89191003,60 5.55043639,60 L19.8498657,60 C20.4143169,60 20.978768,59.5463138 20.978768,58.9111531 L20.978768,52.831758 C20.978768,52.1965974 20.5083921,51.7429112 19.8498657,51.7429112 Z M7.9963914,47.9319471 L1.97557905,39.9470699 C1.88150386,39.8563327 1.88150386,39.7655955 1.88150386,39.584121 L1.88150386,28.0604915 C1.88150386,27.4253308 2.44595502,26.8809074 3.10448137,26.8809074 C3.76300772,26.8809074 4.32745888,27.4253308 4.32745888,28.0604915 L4.32745888,37.4064272 C4.32745888,37.5879017 4.42153407,37.9508507 4.60968446,38.0415879 L9.03121853,42.9413989 C9.4075193,43.3043478 9.97197046,43.3950851 10.3482712,43.0321361 C10.724572,42.6691871 10.8186472,42.1247637 10.4423464,41.7618147 L9.50159449,40.6729679 C8.93714333,40.0378072 8.93714333,39.1304348 9.68974488,38.4045369 C10.1601208,37.9508507 11.0067976,38.0415879 11.3830984,38.4952741 L16.6513092,44.9376181 C16.8394595,45.2098299 17.0276099,45.6635161 17.0276099,46.026465 L17.0276099,51.7429112 L8.74899295,51.7429112 L8.74899295,50.2911153 C8.74899295,49.4744802 8.46676737,48.657845 7.9963914,47.9319471 Z M19.0972642,58.094518 L6.39711312,58.094518 L6.39711312,53.557656 L19.0972642,53.557656 L19.0972642,58.094518 Z" id="Shape"></path>
            <path d="M47.1316717,37.4064272 L47.1316717,16.7183365 L48.8250252,16.7183365 C48.8250252,16.7183365 48.8250252,16.7183365 48.8250252,16.7183365 C49.3894763,16.7183365 49.7657771,16.3553875 49.7657771,15.8109641 C49.7657771,15.4480151 49.5776267,15.1758034 49.2954011,14.9943289 L31.70334,0.20415879 C31.3270393,-0.06805293 30.8566633,-0.06805293 30.4803625,0.20415879 L12.7001511,15.1758034 C12.4179255,15.4480151 12.3238503,15.8109641 12.4179255,16.173913 C12.5120007,16.536862 12.8883014,16.7183365 13.2646022,16.7183365 L14.9579557,16.7183365 L14.9579557,37.4064272 C14.9579557,37.9508507 15.3342565,38.3137996 15.8987076,38.3137996 C26.341054,38.3137996 35.4663478,38.3137996 46.1909198,38.3137996 C46.6612957,38.3137996 47.1316717,37.9508507 47.1316717,37.4064272 Z M31.0448137,2.10964083 L46.2849949,14.9035917 L46.1909198,14.9035917 L15.8987076,14.9035917 L15.8046324,14.9035917 L31.0448137,2.10964083 Z M26.2469788,36.4990548 L26.2469788,24.1587902 L35.9367237,24.1587902 L35.9367237,36.4990548 L26.2469788,36.4990548 Z M45.2501678,36.4990548 L37.7241524,36.4990548 L37.7241524,23.2514178 C37.7241524,22.7069943 37.3478516,22.3440454 36.7834005,22.3440454 L25.3062269,22.3440454 C24.7417758,22.3440454 24.365475,22.7069943 24.365475,23.2514178 L24.365475,36.4990548 L16.8394595,36.4990548 L16.8394595,16.7183365 L45.2501678,16.7183365 L45.2501678,36.4990548 L45.2501678,36.4990548 Z" id="Shape"></path>
            <path d="M31.0448137,13.1795841 C33.2085431,13.1795841 34.9018966,11.5463138 34.9018966,9.45935728 C34.9018966,7.37240076 33.2085431,5.73913043 31.0448137,5.73913043 C28.8810842,5.73913043 27.1877308,7.37240076 27.1877308,9.45935728 C27.1877308,11.5463138 28.8810842,13.1795841 31.0448137,13.1795841 Z M31.0448137,7.55387524 C32.173716,7.55387524 33.0203927,8.3705104 33.0203927,9.45935728 C33.0203927,10.5482042 32.173716,11.3648393 31.0448137,11.3648393 C29.9159114,11.3648393 29.0692346,10.5482042 29.0692346,9.45935728 C29.0692346,8.3705104 29.9159114,7.55387524 31.0448137,7.55387524 Z" id="Shape"></path>
        </g>
    </g>
</svg>