<?xml version="1.0" encoding="UTF-8"?>
<svg width="46px" height="61px" viewBox="0 0 46 61" version="1.1" xmlns="http://www.w3.org/2000/svg" xmlns:xlink="http://www.w3.org/1999/xlink">
    <title>59988680-0-noun-Visa-4067235</title>
    <g id="Page-1" stroke="none" stroke-width="1" fill="none" fill-rule="evenodd">
        <g id="59988680-0-noun-Visa-4067235" transform="translate(0.000000, 0.025000)" fill="#C68A00" fill-rule="nonzero">
            <path d="M2.91,60 L43.09,60 C44.6948704,59.9945132 45.9945132,58.6948704 46,57.09 L46,32.91 C45.9975516,32.2056476 45.7379574,31.5264353 45.27,31 C45.7379574,30.4735647 45.9975516,29.7943524 46,29.09 L46,2.91 C45.9945132,1.30512957 44.6948704,0.00548678455 43.09,0 L2.91,0 C1.30512957,0.00548678455 0.00548678455,1.30512957 0,2.91 L0,29.09 C0.00244835432,29.7943524 0.262042556,30.4735647 0.73,31 C0.262042556,31.5264353 0.00244835432,32.2056476 0,32.91 L0,57.09 C0.00548678455,58.6948704 1.30512957,59.9945132 2.91,60 Z M44,57.09 C44,57.5925791 43.5925791,58 43.09,58 L2.91,58 C2.40742088,58 2,57.5925791 2,57.09 L2,32.91 C2,32.4074209 2.40742088,32 2.91,32 L43.09,32 C43.5925791,32 44,32.4074209 44,32.91 L44,57.09 Z M2,2.91 C2,2.40742088 2.40742088,2 2.91,2 L43.09,2 C43.5925791,2 44,2.40742088 44,2.91 L44,29.09 C44,29.5925791 43.5925791,30 43.09,30 L2.91,30 C2.40742088,30 2,29.5925791 2,29.09 L2,2.91 Z" id="Shape"></path>
            <path d="M14,14 C16.209139,14 18,12.209139 18,10 C18,7.790861 16.209139,6 14,6 C11.790861,6 10,7.790861 10,10 C10,12.209139 11.790861,14 14,14 Z M14,8 C15.1045695,8 16,8.8954305 16,10 C16,11.1045695 15.1045695,12 14,12 C12.8954305,12 12,11.1045695 12,10 C12,8.8954305 12.8954305,8 14,8 Z" id="Shape"></path>
            <path d="M5,26 L23,26 C23.5522847,26 24,25.5522847 24,25 L24,23.4 C24,19.32 20.32,16 15.8,16 L12.2,16 C7.68,16 4,19.32 4,23.4 L4,25 C4,25.5522847 4.44771525,26 5,26 Z M6,23.4 C6,20.4 8.78,18 12.2,18 L15.8,18 C19.22,18 22,20.42 22,23.4 L22,24 L6,24 L6,23.4 Z" id="Shape"></path>
            <path d="M27,12 L41,12 C41.5522847,12 42,11.5522847 42,11 C42,10.4477153 41.5522847,10 41,10 L27,10 C26.4477153,10 26,10.4477153 26,11 C26,11.5522847 26.4477153,12 27,12 Z" id="Path"></path>
            <path d="M30,7 L38,7 C38.5522847,7 39,6.55228475 39,6 C39,5.44771525 38.5522847,5 38,5 L30,5 C29.4477153,5 29,5.44771525 29,6 C29,6.55228475 29.4477153,7 30,7 Z" id="Path"></path>
            <path d="M27,17 L41,17 C41.5522847,17 42,16.5522847 42,16 C42,15.4477153 41.5522847,15 41,15 L27,15 C26.4477153,15 26,15.4477153 26,16 C26,16.5522847 26.4477153,17 27,17 Z" id="Path"></path>
            <path d="M27,22 L41,22 C41.5522847,22 42,21.5522847 42,21 C42,20.4477153 41.5522847,20 41,20 L27,20 C26.4477153,20 26,20.4477153 26,21 C26,21.5522847 26.4477153,22 27,22 Z" id="Path"></path>
            <path d="M27,27 L41,27 C41.5522847,27 42,26.5522847 42,26 C42,25.4477153 41.5522847,25 41,25 L27,25 C26.4477153,25 26,25.4477153 26,26 C26,26.5522847 26.4477153,27 27,27 Z" id="Path"></path>
            <path d="M39.41,34 L6.59,34 C5.1595825,34 4,35.1595825 4,36.59 L4,53.41 C4,54.8404175 5.1595825,56 6.59,56 L39.41,56 C40.8404175,56 42,54.8404175 42,53.41 L42,36.59 C42,35.1595825 40.8404175,34 39.41,34 Z M40.0001703,53.41 C40.0027363,53.5673006 39.9414548,53.7189645 39.8302097,53.8302097 C39.7189645,53.9414548 39.5673006,54.0027363 39.41,54.0001703 L6.59,54.0001703 C6.43269939,54.0027363 6.28103549,53.9414548 6.16979033,53.8302097 C6.05854518,53.7189645 5.99726371,53.5673006 5.99982974,53.41 L5.99982974,36.59 C5.99726371,36.4326994 6.05854518,36.2810355 6.16979033,36.1697903 C6.28103549,36.0585452 6.43269939,35.9972637 6.59,35.9998297 L39.41,35.9998297 C39.5673006,35.9972637 39.7189645,36.0585452 39.8302097,36.1697903 C39.9414548,36.2810355 40.0027363,36.4326994 40.0001703,36.59 L40.0001703,53.41 Z" id="Shape"></path>
            <path d="M37,42 C37.5522847,42 38,41.5522847 38,41 C38,40.4477153 37.5522847,40 37,40 L27.89,40 C25.1705519,37.345043 20.8294481,37.345043 18.11,40 L9,40 C8.44771525,40 8,40.4477153 8,41 C8,41.5522847 8.44771525,42 9,42 L16.69,42 C16.3838647,42.6308754 16.1780553,43.3056603 16.08,44 L9,44 C8.44771525,44 8,44.4477153 8,45 C8,45.5522847 8.44771525,46 9,46 L16.08,46 C16.1780553,46.6943397 16.3838647,47.3691246 16.69,48 L9,48 C8.44771525,48 8,48.4477153 8,49 C8,49.5522847 8.44771525,50 9,50 L18.11,50 C20.8294481,52.654957 25.1705519,52.654957 27.89,50 L37,50 C37.5522847,50 38,49.5522847 38,49 C38,48.4477153 37.5522847,48 37,48 L29.31,48 C29.6161353,47.3691246 29.8219447,46.6943397 29.92,46 L37,46 C37.5522847,46 38,45.5522847 38,45 C38,44.4477153 37.5522847,44 37,44 L29.92,44 C29.8219447,43.3056603 29.6161353,42.6308754 29.31,42 L37,42 Z M18,45 C18,42.2385763 20.2385763,40 23,40 C25.7614237,40 28,42.2385763 28,45 C28,47.7614237 25.7614237,50 23,50 C20.2385763,50 18,47.7614237 18,45 Z" id="Shape"></path>
            <path d="M25.45,42.11 C24.9583464,41.8630757 24.3595756,42.059687 24.11,42.55 L22.55,45.66 L21.45,45.11 C20.9664728,44.9086496 20.4095037,45.1145141 20.1731659,45.5819378 C19.9368281,46.0493615 20.1012073,46.6199527 20.55,46.89 L22.55,47.89 C22.6883204,47.9640366 22.8431229,48.0018772 23,48 C23.3765582,47.9988587 23.7205498,47.7862797 23.89,47.45 L25.89,43.45 C26.1369243,42.9583464 25.940313,42.3595756 25.45,42.11 Z" id="Path"></path>
        </g>
    </g>
</svg>