<?xml version="1.0" encoding="UTF-8"?>
<svg width="220px" height="220px" viewBox="0 0 220 220" version="1.1" xmlns="http://www.w3.org/2000/svg" xmlns:xlink="http://www.w3.org/1999/xlink">
    <title>Group 71</title>
    <g id="Page-1" stroke="none" stroke-width="1" fill="none" fill-rule="evenodd">
        <g id="Group-71" fill="#BD8C1B" fill-rule="nonzero">
            <g id="hospital-sign-copy-2">
                <path d="M57.5,35 C55.016,35 53,37.016 53,39.5 C53,41.984 55.016,44 57.5,44 C59.984,44 62,41.984 62,39.5 C62,37.016 59.984,35 57.5,35 Z" id="Path"></path>
                <path d="M110,0 C50.7117187,0 0,50.6176172 0,110 C0,169.301602 50.6236328,220 110,220 C169.288281,220 220,169.382383 220,110 C220,50.6983984 169.376367,0 110,0 Z M110,211.40625 C55.0322266,211.40625 8.59375,164.967773 8.59375,110 C8.59375,55.0322266 55.0322266,8.59375 110,8.59375 C164.967773,8.59375 211.40625,55.0322266 211.40625,110 C211.40625,164.967773 164.967773,211.40625 110,211.40625 Z" id="Shape"></path>
                <path d="M110.5,19 C96.7255986,19 82.154331,22.1788732 70.522662,27.7217113 C68.3812183,28.7423873 67.4718028,31.3061056 68.4924789,33.4475493 C69.5127254,35.588993 72.0755845,36.4992676 74.2183169,35.4777324 C84.735662,30.4658521 97.9602042,27.5915493 110.5,27.5915493 C155.441106,27.5915493 193.408451,65.5588944 193.408451,110.5 C193.408451,155.441106 155.441106,193.408451 110.5,193.408451 C65.5588944,193.408451 27.5915493,155.441106 27.5915493,110.5 C27.5915493,89.9722113 35.1224718,69.7395423 48.2537958,54.9895704 C49.8316338,53.2175634 49.6739789,50.5022042 47.9019718,48.9247958 C46.1295352,47.3465282 43.4150352,47.5059014 41.8371972,49.2766197 C27.323493,65.5790845 19,87.8939155 19,110.5 C19,160.214141 60.7132606,202 110.5,202 C160.214141,202 202,160.286739 202,110.5 C202,60.7858592 160.286739,19 110.5,19 Z" id="Path"></path>
            </g>
            <g id="Group-70" transform="translate(59.000000, 60.000000)">
                <path d="M44.977802,66 C46.286299,66 47.3470062,64.9402289 47.3470062,63.6328868 L47.3470062,58.3166405 C49.9361113,57.4221809 52.3105374,55.9479815 54.3051172,53.9553553 C55.2305961,53.0306932 55.2305961,51.5323976 54.3051172,50.6085471 C53.380412,49.6838851 51.8800191,49.6838851 50.954579,50.6085471 C48.3867484,53.1748843 44.9710329,54.5887754 41.3379307,54.5887754 C37.7048286,54.5887754 34.29008,53.1750002 31.7212825,50.6077742 C29.1534519,48.04221 27.7383117,44.630282 27.7383117,40.9996135 C27.7383117,37.369718 29.1533359,33.9579833 31.7220561,31.3914529 C34.2898866,28.8251157 37.7061824,27.4112246 41.3387043,27.4112246 C44.9712263,27.4112246 48.386555,28.8249998 50.9553526,31.3914529 C51.8808314,32.315342 53.3804507,32.315342 54.3058909,31.3914529 C55.2313697,30.4667909 55.2313697,28.9684952 54.3058909,28.0438718 C52.3115044,26.0512456 49.9368849,24.5776452 47.3477798,23.6833595 L47.3477798,18.3671132 C47.3477798,17.0597711 46.2870726,16 44.9785756,16 C43.6700786,16 42.6093714,17.0597711 42.6093714,18.3671132 L42.6093714,22.7262728 C42.1885621,22.6975892 41.7647356,22.6779644 41.3386463,22.6779644 C40.912557,22.6779644 40.4894848,22.6975892 40.0671669,22.7262728 L40.0671669,18.3671132 C40.0671669,17.0597711 39.0064597,16 37.6979627,16 C36.3894657,16 35.3287585,17.0597711 35.3287585,18.3671132 L35.3287585,23.6833595 C32.7396535,24.5778191 30.366001,26.0520185 28.3714211,28.0438718 C24.9075478,31.5039149 23,36.1046167 23,40.9996135 C23,45.8938374 24.9076059,50.4960851 28.3714211,53.9553553 C30.3658075,55.9479815 32.7396535,57.4221616 35.3287585,58.3166405 L35.3287585,63.6328868 C35.3287585,64.9402289 36.3894657,66 37.6979627,66 C39.0064597,66 40.0671669,64.9402289 40.0671669,63.6328868 L40.0671669,59.2737272 C40.4887306,59.3024108 40.9118027,59.3220356 41.3386463,59.3220356 C41.7647356,59.3220356 42.1878078,59.3024108 42.6093714,59.2737272 L42.6093714,63.6328868 C42.608616,64.9402289 43.6693244,66 44.977802,66 Z" id="Path"></path>
                <path d="M81.6848938,53.6301425 C81.8542703,53.0926043 82.0100386,52.5565611 82.1589931,52.0062969 C83.0739358,48.6118737 83.5616432,45.04381 83.5616432,41.3670772 C83.5616432,18.5599877 64.8220233,0 41.7808216,0 C18.7456207,0 0,18.5607544 0,41.3670772 C0,64.1734 18.746395,82.7341544 41.7808216,82.7341544 C45.493554,82.7341544 49.098079,82.2512765 52.5264525,81.3453943 C52.2285241,79.8158819 52.0727558,78.2332807 52.0727558,76.6160855 L52.0727558,76.5958716 C48.8002087,77.5346804 45.3520908,78.0377779 41.7816346,78.0377779 C21.3616065,78.0377779 4.74335438,61.5898417 4.74335438,41.366278 C4.74335438,21.148464 21.3625744,4.69477803 41.7816346,4.69477803 C62.20747,4.69477803 78.8199149,21.1494223 78.8199149,41.366278 C78.8199149,44.9013768 78.3117854,48.3161156 77.3635869,51.5554889 C77.2010164,52.1259728 77.0180202,52.6822166 76.8214273,53.2392271 C76.8206712,53.2422215 76.8191588,53.2437189 76.8184027,53.2467136 C75.3817224,53.2804029 73.9746201,53.4338774 72.6126396,53.7123807 C72.6133957,53.7108833 72.6133957,53.7101346 72.6141518,53.7093858 C72.8651968,53.1127026 73.0950648,52.5017984 73.3052659,51.8849145 C74.4364685,48.5780782 75.046669,45.0429793 75.046669,41.3670132 C75.046669,23.2083535 60.1212138,8.43089283 41.7811288,8.43089283 C23.4410438,8.43089283 8.52139582,23.2085452 8.52139582,41.3670132 C8.52139582,59.5254811 23.440076,74.3031335 41.7811288,74.3031335 C45.4938612,74.3031335 49.0643174,73.6997231 52.4042279,72.578975 C52.6212427,71.2171618 52.9599957,69.895788 53.3932704,68.6216575 C49.8228143,70.1174768 45.8998615,70.9493223 41.7812063,70.9493223 C25.310844,70.9493223 11.9090028,57.6740629 11.9090028,41.3671857 C11.9090028,25.0603084 25.3100697,11.7850491 41.7812063,11.7850491 C58.2583436,11.7850491 71.6592169,25.0603084 71.6592169,41.3671857 C71.6592169,45.4391136 70.8191483,49.3232184 69.3082714,52.8642586 L69.3082714,52.8709965 C68.9899404,53.6091795 68.6443737,54.3331226 68.2647961,55.0443779 C68.26404,55.0458753 68.2632839,55.0473726 68.2625277,55.0481214 C62.2164649,57.5636092 57.4421775,62.5010566 55.1849214,68.6279224 C55.1531638,68.7147657 55.1259416,68.8031077 55.0949409,68.8899548 C55.000423,69.1564719 54.9059051,69.4222416 54.8212092,69.6932626 C54.5951158,70.4127209 54.4022976,71.147895 54.2465293,71.8950092 C54.2472856,71.8950092 54.2480417,71.8942606 54.2487978,71.8942606 C53.9682716,73.2433479 53.8125033,74.6366694 53.7784732,76.0583752 C53.7762049,76.0591238 53.7746925,76.0598724 53.772424,76.060621 C53.7671311,76.2148448 53.7671311,76.365316 53.7671311,76.5180469 C53.7671311,76.5509887 53.7641066,76.5839287 53.7641066,76.6168686 C53.7641066,76.8062786 53.7739364,76.9934348 53.7784732,77.1813537 C53.7830101,77.3647744 53.7837662,77.5474554 53.79284,77.7293755 C53.8034261,77.9592096 53.8230858,78.1875488 53.8412332,78.415888 C53.8518194,78.5543903 53.860137,78.6943837 53.8729909,78.8321462 C53.9002111,79.1136508 53.9349943,79.3928939 53.9720461,79.672137 C53.9818761,79.740265 53.9886814,79.8098899 53.9985114,79.8780141 C55.6060781,91.2328782 65.4760422,100 77.382144,100 C90.4051626,100 101,89.5098888 101,76.6160254 C101,65.1795158 92.6589344,55.6392528 81.6850808,53.6287791 L81.6848938,53.6301425 Z M77.3802148,95.3057862 C66.9733369,95.3057862 58.5052873,86.9223601 58.5052873,76.6177721 C58.5052873,66.3139507 66.9725626,57.929758 77.3802148,57.929758 C87.787867,57.929758 96.2559166,66.3131841 96.2559166,76.6177721 C96.2559166,86.9223601 87.7894156,95.3057862 77.3802148,95.3057862 Z" id="Shape"></path>
                <path d="M84.920695,69.7669942 L75.1824428,80.4811125 L69.8074719,76.1901438 C68.7995287,75.3861335 67.3257458,75.5457572 66.5155149,76.5479716 C65.7061633,77.5509271 65.8674449,79.0163524 66.8753882,79.8212178 L73.9736526,85.4870147 C74.4052023,85.8314819 74.9226108,86 75.4385476,86 C76.0784178,86 76.7152872,85.7394212 77.1767116,85.2331067 L88.3955131,72.8894921 C89.2623588,71.9347905 89.1884269,70.4633026 88.228268,69.6014219 C87.2688545,68.7387619 85.7874452,68.8130148 84.9206377,69.7669733 L84.920695,69.7669942 Z" id="Path"></path>
            </g>
        </g>
    </g>
</svg>