<?xml version="1.0" encoding="UTF-8"?>
<svg id="Layer_1" data-name="Layer 1" xmlns="http://www.w3.org/2000/svg" width="100" height="100" viewBox="0 0 100 100">
  <defs>
    <style>
      .cls-1 {
        fill: #1d99cc;
      }
    </style>
  </defs>
  <path class="cls-1" d="m48.7,26.62l-31.44,25.9v37.95c0,1.51,1.22,2.73,2.73,2.73l19.11-.05c1.5,0,2.71-1.23,2.71-2.73v-26.32c0-1.51,1.22-2.73,2.73-2.73h10.91c1.51,0,2.73,1.22,2.73,2.73v26.31c0,1.51,1.21,2.73,2.72,2.74,0,0,0,0,0,0l19.1.05c1.51,0,2.73-1.22,2.73-2.73v-37.97l-31.44-25.88c-.76-.61-1.85-.61-2.61,0h0Zm49.67,17.6l-14.26-11.75V8.85c0-1.13-.92-2.05-2.05-2.05h-9.55c-1.13,0-2.05.92-2.05,2.05v12.38l-15.27-12.56c-3.02-2.49-7.38-2.49-10.4,0L1.62,44.22c-.87.72-.99,2.01-.27,2.88,0,0,0,0,0,0l4.35,5.29c.72.87,2.01,1,2.88.28,0,0,0,0,0,0L48.7,19.63c.76-.61,1.85-.61,2.61,0l40.12,33.04c.87.72,2.16.6,2.88-.27,0,0,0,0,0,0l4.35-5.29c.72-.87.59-2.16-.28-2.88,0,0,0,0,0,0h0Z"/>
</svg>