<?xml version="1.0" encoding="UTF-8"?>
<svg id="Layer_1" data-name="Layer 1" xmlns="http://www.w3.org/2000/svg" width="100" height="100" viewBox="0 0 100 100">
  <defs>
    <style>
      .cls-1 {
        fill: none;
      }

      .cls-2 {
        fill: #1d99cc;
      }
    </style>
  </defs>
  <g id="Layer_2" data-name="Layer 2">
    <g id="Interface-Solid">
      <g id="interface-solid-award-star">
        <path class="cls-1" d="m25.65,19.57c.01,8.69,4.65,16.71,12.17,21.05V10.44h-12.17v9.13Z"/>
        <path class="cls-1" d="m62.17,40.62c7.52-4.34,12.16-12.36,12.17-21.05v-9.13h-12.17v30.18Z"/>
        <path class="cls-2" d="m66.57,65.49l-8.84-.37-3.09-8.76c-.87-2.56-3.66-3.93-6.22-3.06-1.44.49-2.57,1.62-3.06,3.06l-3.09,8.76-8.83.37c-2.05.08-3.83,1.43-4.47,3.38-.69,1.99-.06,4.19,1.56,5.52l7.05,5.82-2.45,9.08c-.57,2.05.21,4.24,1.96,5.46,1.67,1.19,3.92,1.19,5.59,0l7.33-5.11,7.33,5.11c1.68,1.18,3.92,1.18,5.59,0,1.74-1.22,2.53-3.41,1.96-5.46l-2.45-9.08,7.05-5.82c1.62-1.33,2.25-3.54,1.56-5.52-.63-1.95-2.41-3.3-4.46-3.38Z"/>
        <path class="cls-2" d="m77.39,4.35H22.61c-1.68,0-3.04,1.36-3.04,3.04,0,0,0,0,0,0v12.17c0,16.81,13.62,30.43,30.43,30.43s30.43-13.62,30.43-30.43V7.4c0-1.68-1.36-3.04-3.04-3.04,0,0,0,0,0,0Zm-39.56,36.27c-7.52-4.34-12.16-12.36-12.17-21.05v-9.13h12.17v30.18Zm36.52-21.05c-.01,8.69-4.65,16.71-12.17,21.05V10.44h12.17v9.13Z"/>
      </g>
    </g>
  </g>
</svg>