<?xml version="1.0" encoding="UTF-8"?>
<svg id="Layer_1" data-name="Layer 1" xmlns="http://www.w3.org/2000/svg" width="100" height="100" viewBox="0 0 100 100">
  <defs>
    <style>
      .cls-1 {
        fill: #1d99cc;
      }
    </style>
  </defs>
  <path class="cls-1" d="m10.85,66.28h39.15c1.96,0,3.26-1.31,3.26-3.26s-1.31-3.26-3.26-3.26h-9.79v-26.1c0-1.96-1.31-3.26-3.26-3.26H10.85c-1.96,0-3.26,1.31-3.26,3.26v29.36c0,1.96,1.31,3.26,3.26,3.26Z"/>
  <path class="cls-1" d="m95.68,13.43v-.65c-.33-.33-.33-.65-.65-.98l-6.53-6.53c-.98-.98-2.94-1.31-4.24-.33l-39.15,26.1c-1.31.65-1.63,2.28-1.31,3.59.33,1.31,1.63,2.28,3.26,2.28h13.7l-12.4,10.44c-1.31,1.31-1.63,3.26-.33,4.57.65.65,1.63,1.31,2.61,1.31.65,0,1.63-.33,1.96-.65l18.6-15.66c.65-.33,1.31-.65,1.63-1.31l16.31-14.36v41.76c0,1.96-1.31,3.26-3.26,3.26s-3.26-1.31-3.26-3.26c1.96,0,3.26-1.31,3.26-3.26s-1.31-3.26-3.26-3.26h-3.26c-1.96,0-3.26,1.31-3.26,3.26v3.26c0,5.55,4.24,9.79,9.79,9.79s9.79-4.24,9.79-9.79V13.43Zm-28.71,16.97h-9.46l10.77-7.18-1.31,7.18Zm7.83-5.55l1.31-6.85,9.46-6.2,2.28,2.28-13.05,10.77Z"/>
  <path class="cls-1" d="m56.53,69.55H17.37c-7.18,0-13.05,5.87-13.05,13.05s5.87,13.05,13.05,13.05h39.15c7.18,0,13.05-5.87,13.05-13.05s-5.87-13.05-13.05-13.05Zm-33.61,15.33c-.33,0-.33.33-.65.33,0,0-.33.33-.65.33s-.33,0-.65.33h-.65c-.98,0-1.63-.33-2.28-.98-.33-.65-.65-1.31-.65-2.28s.33-1.63.98-2.28c1.31-1.31,3.26-1.31,4.57,0,.65.65.98,1.31.98,2.28s-.33,1.63-.98,2.28Zm17.29-1.63q0,.33-.33.65c0,.33-.33.33-.33.65l-.33.33c-.33.33-.65.65-.98.65-.33.33-.98.33-1.31.33-.98,0-1.63-.33-2.28-.98-.65-.65-.98-1.31-.98-2.28s.33-1.63.98-2.28c.98-.98,2.28-1.31,3.59-.65.33.33.65.33.98.65.65.65.98,1.31.98,2.28q0,.33,0,.65Zm15.33,1.63c-.33.33-.65.65-.98.65-.33.33-.98.33-1.31.33s-.98,0-1.31-.33-.65-.33-.98-.65c-.65-.65-.98-1.31-.98-2.28s.33-1.63.98-2.28c.33-.33.65-.65.98-.65.65-.33,1.63-.33,2.61,0,.33.33.65.33.98.65.65.65.98,1.31.98,2.28,0,.98-.33,1.63-.98,2.28Z"/>
</svg>