<?xml version="1.0" encoding="utf-8"?>
<!-- Generator: Adobe Illustrator 27.3.1, SVG Export Plug-In . SVG Version: 6.00 Build 0)  -->
<svg version="1.1" id="Layer_1" xmlns="http://www.w3.org/2000/svg" xmlns:xlink="http://www.w3.org/1999/xlink" x="0px" y="0px"
	 viewBox="0 0 1159 148.32" style="enable-background:new 0 0 1159 148.32;" xml:space="preserve">
<style type="text/css">
	.st0{fill:#FFFFFF;}
</style>
<path id="Shape_00000134214661157203997390000005009771260411475383_" class="st0" d="M156.89,35.26c-0.4,0-0.81,0-1.21,0l0,0
	h-29.43l-2.02-4.43h14.11c-0.81-0.81-2.02-1.21-2.82-2.02c-2.42-2.42-4.03-4.84-5.24-7.26c-2.02-4.43-1.61-7.66,0.4-10.08
	s6.05-3.63,12.09-3.63h20.16l2.02,4.43h-13.71c-7.26,0-9.27,3.63-6.85,9.27c1.21,3.22,2.82,6.45,5.64,7.66
	c2.82,1.21,5.64,1.61,10.48,1.61h12.9l1.61,4.84h-18.14V35.26z M280.65,7.85l56.84,132.63H150.03c-24.59,0-44.34-2.02-58.86-6.85
	c-15.72-4.84-29.83-12.9-42.33-24.19c-11.29-10.48-20.16-22.17-25.8-35.07h68.13c6.45,15.32,12.5,29.43,26.61,35.88
	c12.9,6.05,71.76,7.66,95.94,7.66h52L218.57,7.85H280.65L280.65,7.85z M1134.87,109.43c-2.82,11.29-10.08,19.35-21.77,24.19
	c-10.48,4.43-28.22,6.85-53.21,6.85H941.37l-8.87-20.96h80.22c24.19,0,39.91-2.82,47.97-8.87c8.87-6.45,7.66-21.77,0.81-37.49
	C1049.81,45.34,1024.82,28,990.55,28h-38.7l8.87,20.56h-29.43L914.36,7.85h98.36c28.62,0,53.21,5.64,73.37,17.33
	c20.16,11.29,34.67,27.41,43.54,48.37C1135.67,86.46,1137.29,98.55,1134.87,109.43 M865.98,7.85l56.84,132.63h-62.08L803.9,7.85
	H865.98L865.98,7.85z M735.37,110.24c-8.06,6.05-23.78,8.87-47.97,8.87h-20.96L626.93,28h38.7c34.27,0,58.86,17.33,70.95,44.75
	C743.03,88.87,744.24,103.79,735.37,110.24 M761.17,25.18C741.02,13.89,716.42,7.85,687.4,7.85h-98.36l48.38,111.26H409.65
	L362.08,7.85H300l56.84,132.63h378.13c24.59,0,42.33-2.42,53.21-6.85c11.69-4.84,18.54-12.9,21.37-24.19
	c2.42-10.88,0.81-22.57-4.84-35.88C795.84,52.59,781.33,36.47,761.17,25.18"/>
</svg>
